<?xml version="1.0" encoding="UTF-8" standalone="no"?>
<!DOCTYPE svg PUBLIC "-//W3C//DTD SVG 1.1//EN"
 "http://www.w3.org/Graphics/SVG/1.1/DTD/svg11.dtd">
<!-- Generated by graphviz version 2.38.0 (20140413.2041)
 -->
<!-- Title: G Pages: 1 -->
<svg width="86pt" height="326pt"
 viewBox="0.00 0.00 86.00 326.00" xmlns="http://www.w3.org/2000/svg" xmlns:xlink="http://www.w3.org/1999/xlink">
<g id="graph0" class="graph" transform="scale(1 1) rotate(0) translate(4 322)">
<title>G</title>
<polygon fill="white" stroke="none" points="-4,4 -4,-322 82,-322 82,4 -4,4"/>
<!-- 0 -->
<g id="node1" class="node"><title>0</title>
<ellipse fill="grey" stroke="black" cx="36" cy="-282" rx="36" ry="36"/>
<text text-anchor="middle" x="36" y="-279.5" font-family="Tahoma Bold" font-size="10.00">ROOT</text>
</g>
<!-- 2 -->
<g id="node2" class="node"><title>2</title>
<ellipse fill="grey" stroke="black" cx="36" cy="-159" rx="36" ry="36"/>
<text text-anchor="middle" x="36" y="-156.5" font-family="Tahoma" font-size="10.00">летают</text>
</g>
<!-- 0&#45;&gt;2 -->
<g id="edge1" class="edge"><title>0&#45;&gt;2</title>
<path fill="none" stroke="black" d="M36,-245.677C36,-233.127 36,-218.819 36,-205.537"/>
<polygon fill="black" stroke="black" points="39.5001,-205.158 36,-195.158 32.5001,-205.158 39.5001,-205.158"/>
<text text-anchor="middle" x="53" y="-216.8" font-family="FreeMono" font-size="14.00">root</text>
</g>
<!-- 1 -->
<g id="node3" class="node"><title>1</title>
<ellipse fill="grey" stroke="black" cx="36" cy="-36" rx="36" ry="36"/>
<text text-anchor="middle" x="36" y="-33.5" font-family="Tahoma" font-size="10.00">Единороги</text>
</g>
<!-- 2&#45;&gt;1 -->
<g id="edge2" class="edge"><title>2&#45;&gt;1</title>
<path fill="none" stroke="black" d="M36,-122.677C36,-110.127 36,-95.8186 36,-82.5367"/>
<polygon fill="black" stroke="black" points="39.5001,-82.1582 36,-72.1582 32.5001,-82.1582 39.5001,-82.1582"/>
<text text-anchor="middle" x="57" y="-93.8" font-family="FreeMono" font-size="14.00">nsubj</text>
</g>
</g>
</svg>
